<!-- Created with Inkscape (http://www.inkscape.org/) -->

<svg
   width="210mm"
   height="297mm"
   viewBox="0 0 210 297"
   version="1.1"
   id="svg1"
   xml:space="preserve"
   xmlns="http://www.w3.org/2000/svg"
   xmlns:svg="http://www.w3.org/2000/svg"><defs
     id="defs1" /><g
     id="layer1"><path
       style="fill:#000000"
       d="m 156.79306,135.05693 c -0.19917,-0.10806 -0.3991,-0.3438 -0.44429,-0.52387 -0.0452,-0.18006 -0.13524,-0.32738 -0.20012,-0.32738 -0.13909,0 -0.15904,-0.44398 -0.0259,-0.57709 0.11681,-0.11681 0.15672,-0.33793 0.25958,-1.4382 0.0761,-0.81423 0.0534,-0.93599 -0.26442,-1.41623 -0.20367,-0.30777 -0.80064,-0.83008 -1.44114,-1.26091 -0.6014,-0.40452 -1.77805,-1.21499 -2.6148,-1.80103 -1.59578,-1.11768 -2.28513,-1.48497 -3.70416,-1.97364 -0.47295,-0.16287 -0.92899,-0.35134 -1.01344,-0.41882 -0.21713,-0.17349 -2.18861,-1.16825 -2.31534,-1.16825 -0.0577,0 -0.54653,-0.20671 -1.08618,-0.45937 -0.94814,-0.4439 -1.68093,-1.00989 -2.74519,-2.12032 -0.44995,-0.46947 -0.47741,-0.53396 -0.24342,-0.57169 0.14506,-0.0234 0.23212,-0.0937 0.19347,-0.15623 -0.15188,-0.24574 0.20026,-0.24512 1.06397,0.002 0.4968,0.14207 0.93058,0.231 0.96395,0.19763 0.0334,-0.0334 -0.0223,-0.0884 -0.12363,-0.1223 -0.10136,-0.0339 -0.45219,-0.15035 -0.77961,-0.25879 -0.32742,-0.10843 -0.83344,-0.32039 -1.12448,-0.47102 -0.46734,-0.24186 -0.4828,-0.26365 -0.13229,-0.18648 0.21828,0.0481 0.635,0.18677 0.92604,0.30825 0.7596,0.31707 1.54505,0.49306 2.97656,0.66693 1.231,0.14952 3.01472,0.5616 3.47133,0.80196 0.12659,0.0667 0.63888,0.17914 1.13841,0.24998 0.90465,0.12831 1.34991,0.24602 1.47568,0.39013 0.14431,0.16537 0.92238,0.67111 1.03247,0.67111 0.0644,0 0.22901,0.12361 0.36574,0.27469 0.13672,0.15108 0.63708,0.49039 1.11191,0.75402 0.47482,0.26363 0.88316,0.52697 0.90741,0.5852 0.0243,0.0582 0.0957,0.10588 0.15874,0.10588 0.0631,0 0.37062,0.17166 0.6835,0.38147 0.89574,0.60065 2.55363,1.33832 3.00782,1.33832 0.2276,0 0.63515,-0.0934 0.90567,-0.20764 0.27051,-0.1142 0.74675,-0.20846 1.0583,-0.20946 0.50885,-0.002 0.62626,0.0632 1.15434,0.63759 l 0.58788,0.63941 0.89618,-0.0212 c 0.89902,-0.0213 2.87031,-0.30024 4.60035,-0.65106 1.48212,-0.30053 3.1074,-0.42095 4.0349,-0.29894 0.47294,0.0622 1.30638,0.16645 1.85208,0.23164 0.99958,0.11941 4.21149,0.83239 4.78456,1.06208 0.27401,0.10983 0.24926,0.12642 -0.2205,0.14776 -0.51487,0.0234 -0.51845,0.0268 -0.13229,0.12502 0.21828,0.0555 0.30758,0.1118 0.19844,0.12503 -0.11983,0.0145 -0.0717,0.0747 0.12164,0.15197 0.23126,0.0924 0.28002,0.16801 0.1757,0.27232 -0.0794,0.0794 -0.11506,0.22077 -0.0792,0.31414 0.0414,0.10793 -0.0948,0.20422 -0.37414,0.26439 -0.24161,0.052 -0.59509,0.17421 -0.78552,0.27146 -0.19043,0.0973 -0.78575,0.20234 -1.32292,0.23353 -0.53717,0.0312 -1.15527,0.1291 -1.37355,0.21758 -0.26323,0.10669 -1.48833,0.17451 -3.63802,0.20138 -2.22249,0.0278 -3.53219,0.10232 -4.16719,0.23715 -0.50932,0.10814 -1.72375,0.35563 -2.69872,0.54997 -0.97497,0.19434 -2.03288,0.47566 -2.35091,0.62515 -0.69947,0.32879 -1.87831,1.63538 -2.30535,2.5552 -0.16891,0.3638 -0.3703,0.72647 -0.44754,0.80593 -0.46079,0.47401 -1.32833,0.58233 -1.95231,0.24376 z m -11.41184,-3.57988 c -1.43196,-0.28198 -1.81809,-0.39658 -2.46274,-0.7309 -0.40863,-0.21191 -0.85511,-0.40817 -0.99219,-0.43613 -0.13708,-0.028 -0.58563,-0.20633 -0.99679,-0.39638 -0.43658,-0.20181 -1.09697,-0.37571 -1.5875,-0.41805 -0.46197,-0.0399 -1.43526,-0.22845 -2.16286,-0.41906 -1.2083,-0.31654 -1.55233,-0.34719 -3.97073,-0.35376 l -2.6478,-0.007 -0.65949,0.42549 c -0.75506,0.48716 -1.38672,1.08862 -1.38693,1.32065 -3e-4,0.31872 -0.89914,0.85579 -1.48297,0.88609 -1.05664,0.0548 -1.59119,-0.4726 -1.36295,-1.34483 0.052,-0.19874 0.12299,-0.66039 0.15775,-1.02588 0.0505,-0.53106 0.0146,-0.70705 -0.17882,-0.87629 -0.13311,-0.11648 -1.28381,-0.46873 -2.55712,-0.78279 -3.03188,-0.74781 -5.64449,-0.95326 -9.39271,-0.73865 -1.78009,0.10193 -2.61243,0.006 -2.54661,-0.29311 0.0182,-0.0827 -0.086,-0.15036 -0.23151,-0.15036 -0.14553,0 -0.26459,-0.0531 -0.26459,-0.11795 0,-0.1298 0.26228,-0.20629 1.25677,-0.3665 l 0.66146,-0.10656 -0.66146,-0.0806 -0.66146,-0.0806 0.67479,-0.0208 c 0.37114,-0.0114 0.84739,-0.0739 1.05834,-0.1388 0.21095,-0.0649 0.74073,-0.19071 1.17729,-0.27955 0.43656,-0.0888 1.24024,-0.30075 1.78594,-0.4709 0.5457,-0.17016 1.23031,-0.34814 1.52135,-0.39551 0.29104,-0.0474 0.85659,-0.17964 1.25677,-0.29392 1.45689,-0.41604 2.51132,-0.5159 3.43959,-0.32574 1.57898,0.32345 4.2562,0.69301 5.02042,0.69301 0.74253,0 0.84864,-0.0387 2.42795,-0.88579 0.31315,-0.16797 0.43649,-0.17209 0.79375,-0.0265 0.45498,0.18541 0.74275,0.47582 0.7495,0.75639 0.005,0.20954 0.20367,0.41841 0.7174,0.7544 0.46515,0.30423 2.35443,0.5372 4.703,0.57995 0.90523,0.0165 1.75355,0.0876 1.88515,0.15802 0.13161,0.0704 0.23928,0.101 0.23928,0.0679 0,-0.11892 0.99927,0.21814 1.32292,0.44622 0.1819,0.1282 0.87913,0.53682 1.54939,0.90806 1.0478,0.58035 2.33398,1.44844 2.55165,1.72221 0.30468,0.3832 1.81884,1.35346 2.51354,1.61066 0.51526,0.19077 0.76292,0.33757 0.61793,0.36628 -0.28286,0.056 -0.93172,-0.18364 -1.43546,-0.53018 -0.22138,-0.15229 -0.38578,-0.1933 -0.43776,-0.10919 -0.0458,0.0741 0.01,0.13469 0.12301,0.13469 0.11343,0 0.31669,0.11044 0.45168,0.24543 0.13499,0.13499 0.40908,0.28651 0.60909,0.33671 0.20001,0.0502 0.51266,0.1889 0.69477,0.30822 0.31202,0.20445 0.31739,0.22698 0.0932,0.3909 -0.22199,0.16233 -1.34773,0.21433 -1.97325,0.0911 z m -5.22552,-10.90522 c 0,-0.077 0.0595,-0.10331 0.13229,-0.0583 0.0728,0.045 0.1323,0.10801 0.1323,0.1401 0,0.0321 -0.0595,0.0583 -0.1323,0.0583 -0.0728,0 -0.13229,-0.063 -0.13229,-0.1401 z m -25.45182,-7.09693 c -0.41516,-0.48726 -1.80026,-3.12238 -1.80026,-3.42495 0,-0.10227 -0.0595,-0.18594 -0.13229,-0.18594 -0.0728,0 -0.13229,-0.062 -0.13229,-0.13782 0,-0.0758 -0.11907,-0.26562 -0.26459,-0.42182 -0.14552,-0.1562 -0.26458,-0.39184 -0.26458,-0.52364 0,-0.1318 -0.0476,-0.23963 -0.10572,-0.23963 -0.0981,0 -0.41585,-0.73223 -0.41729,-0.96169 -3.5e-4,-0.056 -0.12094,-0.23092 -0.26798,-0.38875 -0.14704,-0.15782 -0.26734,-0.33377 -0.26734,-0.39099 0,-0.29029 -2.64016,-1.25583 -4.48007,-1.63842 -2.19727,-0.45689 -2.57552,-0.44945 -3.52358,0.0693 -0.65601,0.35895 -0.89269,0.59126 -1.36393,1.33876 -0.48655,0.7718 -0.63878,0.91732 -1.03791,0.9922 -0.49343,0.0926 -2.124772,0.003 -2.251459,-0.12388 -0.117295,-0.11729 -0.07209,-1.14797 0.05792,-1.32054 0.166042,-0.22038 0.428195,-1.18321 0.428195,-1.57265 0,-0.8383 -1.430592,-1.26417 -4.650681,-1.38446 l -2.203285,-0.0823 -0.773277,0.4345 c -0.425302,0.23897 -0.803043,0.47424 -0.839423,0.52281 -0.03638,0.0486 -0.289388,0.22398 -0.562239,0.38978 -0.272852,0.16581 -0.496094,0.35614 -0.496094,0.42297 0,0.16826 -0.313014,0.15244 -0.490228,-0.0248 -0.106832,-0.10683 -0.05859,-0.32085 0.178941,-0.79375 0.178865,-0.35611 0.368773,-0.64748 0.422017,-0.64748 0.109712,0 0.551799,-0.70926 0.548702,-0.88031 -0.0011,-0.0615 -0.05973,-0.0226 -0.130266,0.0866 -0.113991,0.17639 -0.128725,0.17639 -0.132605,0 -0.0074,-0.33512 2.959996,-3.077687 3.778234,-3.491997 0.860034,-0.43547 1.466896,-0.42524 3.0351,0.0512 1.794583,0.54519 2.612031,0.68189 3.704168,0.6194 0.58208,-0.0333 1.14763,-0.0874 1.25677,-0.12024 0.10914,-0.0328 0.37703,-0.10792 0.59531,-0.16688 0.21828,-0.059 0.42664,-0.1439 0.46302,-0.18875 0.13727,-0.16922 0.81987,-0.40682 1.16378,-0.40508 0.61095,0.003 0.95289,0.14816 0.95289,0.40427 0,0.27768 0.26294,0.916327 0.46148,1.120857 0.14898,0.15349 0.65943,0.36404 1.45675,0.60087 0.29104,0.0864 1.61243,0.19373 2.93643,0.23839 l 2.40726,0.0812 0.45249,0.43885 c 0.24887,0.24137 0.53426,0.59855 0.63419,0.79375 0.0999,0.19519 0.36759,0.65256 0.59478,1.01636 0.4733,0.75789 1.11078,2.11079 1.11078,2.35737 0,0.0917 0.0943,0.52154 0.20966,0.9552 0.11531,0.43366 0.22507,0.90753 0.24392,1.05305 0.0188,0.14552 0.0719,0.38365 0.11786,0.52917 0.253,0.8007 0.88377,4.19446 0.88377,4.75501 0,0.80759 -0.25381,0.66179 -0.28618,-0.1644 -0.012,-0.30564 -0.0605,-0.55571 -0.10788,-0.55571 -0.0474,0 -0.18743,-0.2125 -0.31128,-0.47222 -0.12386,-0.25972 -0.16324,-0.43393 -0.0875,-0.38714 0.0921,0.0569 0.10864,-0.10423 0.05,-0.4869 -0.10542,-0.68771 -0.13994,-0.73798 -0.35072,-0.51067 -0.0897,0.0968 -0.10328,0.14292 -0.0301,0.10255 0.12875,-0.071 0.18396,3.01488 0.0558,3.12137 -0.0311,0.0259 -0.22876,-0.15499 -0.43916,-0.40194 z m 0.0631,-1.2435 c -0.0697,-0.17428 -0.13052,-0.24732 -0.13513,-0.16232 -0.0112,0.20645 0.1429,0.59816 0.20923,0.53182 0.029,-0.0289 -0.004,-0.19523 -0.0741,-0.3695 z m 0.14532,-3.1898 c -0.0949,-0.0949 -0.15655,-0.10274 -0.15655,-0.0198 0,0.17658 0.15645,0.33303 0.24474,0.24473 0.0376,-0.0376 -0.002,-0.13879 -0.0882,-0.22489 z m 0.64765,4.71399 c 0.006,-0.15411 0.0377,-0.18546 0.0799,-0.0799 0.0382,0.0955 0.0335,0.2096 -0.0104,0.25355 -0.044,0.044 -0.0752,-0.0342 -0.0695,-0.17363 z M 79.2308,80.494533 c -0.304785,-0.11545 -0.691146,-0.52843 -0.494368,-0.52843 0.259224,0 0.961981,0.29368 0.961981,0.402 0,0.18488 -0.182818,0.2343 -0.467613,0.12643 z m -4.294886,-1.03555 c -0.07276,-0.0243 -0.133204,-0.14332 -0.134318,-0.26459 -0.0016,-0.17932 -0.02391,-0.18592 -0.119244,-0.0353 -0.16413,0.25923 -1.157079,0.11852 -2.524563,-0.35775 -0.109141,-0.038 -0.228203,-0.0794 -0.264584,-0.092 -0.03638,-0.0126 -0.155442,-0.0601 -0.264583,-0.1057 -0.84645,-0.35341 -2.209318,-0.80499 -3.101483,-1.02766 -0.586137,-0.14629 -1.512189,-0.4386 -2.057892,-0.64957 -1.790123,-0.69208 -2.978687,-0.93684 -5.154557,-1.06144 -1.130436,-0.0647 -2.302606,-0.15742 -2.604823,-0.20596 -0.825723,-0.13262 -1.746915,0.22318 -2.410297,0.93096 -0.300271,0.32036 -0.545947,0.6199 -0.545947,0.66563 0,0.10457 -0.787978,1.26103 -1.020648,1.49794 -0.482052,0.49084 -2.20979,0.49568 -2.697912,0.008 -0.325442,-0.32544 -0.31642,-0.84733 0.03031,-1.7534 0.514304,-1.34396 0.11576,-2.06867 -1.137634,-2.06867 -0.366283,0 -0.873935,-0.0607 -1.128116,-0.13497 -0.254182,-0.0742 -1.295585,-0.256 -2.314231,-0.40393 -1.807285,-0.26244 -2.417949,-0.26126 -3.73035,0.007 -1.411849,0.28886 -1.313135,0.27698 -5.0009,0.6019 -0.509323,0.0449 -1.104635,0.10401 -1.322916,0.13141 -0.218282,0.0274 -0.962422,0.0119 -1.653646,-0.0345 -0.983586,-0.066 -1.158673,-0.105 -0.805478,-0.17954 0.248211,-0.0524 0.545867,-0.063 0.661458,-0.0237 0.136864,0.0466 0.117885,-5.3e-4 -0.05442,-0.13519 -0.218624,-0.17087 -0.230114,-0.21913 -0.06615,-0.27783 1.300716,-0.46571 1.719792,-0.64572 1.719792,-0.73872 0,-0.12117 -0.516836,-0.0245 -0.727604,0.13614 -0.07276,0.0554 -0.429948,0.13708 -0.79375,0.18143 l -0.661458,0.0806 0.661458,-0.21755 c 0.363802,-0.11965 1.256771,-0.42308 1.984375,-0.67427 1.837385,-0.63433 1.784722,-0.62208 1.795235,-0.41766 0.0053,0.10208 0.05165,0.073 0.106585,-0.0668 0.09582,-0.24386 0.366953,-0.37186 2.463805,-1.16321 3.17554,-1.19844 2.404247,-1.08054 7.209895,-1.10218 2.364714,-0.0106 4.401097,-0.0399 4.525297,-0.0651 0.124199,-0.0252 0.257724,-0.12888 0.296722,-0.23051 0.039,-0.10162 0.130767,-0.14777 0.203932,-0.10255 0.07734,0.0478 0.119266,-0.0456 0.100153,-0.22313 -0.02008,-0.1865 0.03149,-0.29247 0.13249,-0.27227 0.233038,0.0466 0.205409,-0.10691 -0.05328,-0.29607 -0.410978,-0.30052 -0.07164,-0.42413 1.040574,-0.37907 1.496483,0.0606 2.00283,0.34623 2.456195,1.38543 0.116039,0.26598 0.389427,0.57595 0.615116,0.69742 0.503124,0.27078 2.746401,0.69718 6.293221,1.1962 1.564133,0.22006 2.656962,0.50968 2.946064,0.78075 0.09042,0.0848 0.626676,0.39227 1.191684,0.68331 0.565008,0.29104 1.172244,0.66311 1.349413,0.82682 0.177169,0.16372 0.377468,0.29766 0.445109,0.29766 0.06764,0 0.472001,0.32742 0.898575,0.7276 0.426575,0.40019 0.812129,0.72761 0.856786,0.72761 0.07634,0 0.860626,0.5668 1.315591,0.95077 0.113205,0.0955 0.500158,0.37751 0.859896,0.6266 0.359738,0.24909 0.678874,0.47233 0.709191,0.49609 0.03032,0.0238 0.02027,0.0781 -0.02233,0.12066 -0.0426,0.0426 -0.292774,-0.0247 -0.555946,-0.14961 -0.263172,-0.12489 -0.516054,-0.18951 -0.561959,-0.1436 -0.04591,0.0459 0.01174,0.0835 0.128107,0.0835 0.116365,0 0.249361,0.11907 0.295547,0.26459 0.04619,0.14552 0.154378,0.26787 0.240425,0.2719 0.08605,0.004 0.282598,0.16774 0.436778,0.3638 l 0.280328,0.35648 h -0.313401 c -0.17237,0 -0.372932,-0.0198 -0.445692,-0.0441 z m -37.236602,-5.94963 c -0.04073,-0.0407 -0.147479,-8e-5 -0.237216,0.0903 -0.129682,0.13065 -0.114486,0.14585 0.07406,0.0741 0.130469,-0.0497 0.20389,-0.12366 0.16316,-0.16439 z m -3.738223,0.80882 c 0.128716,-0.0335 0.307309,-0.0313 0.396875,0.005 0.08957,0.0362 -0.01575,0.0637 -0.234028,0.061 -0.218281,-0.003 -0.291562,-0.0324 -0.162847,-0.0659 z"
       id="path1" /></g></svg>
